<?xml version="1.0" standalone="no"?><!DOCTYPE svg PUBLIC "-//W3C//DTD SVG 1.1//EN" "http://www.w3.org/Graphics/SVG/1.1/DTD/svg11.dtd"><svg t="1494660870271" class="icon" style="" viewBox="0 0 1024 1024" version="1.1" xmlns="http://www.w3.org/2000/svg" p-id="8416" xmlns:xlink="http://www.w3.org/1999/xlink" width="200" height="200"><defs><style type="text/css">@font-face { font-family: simple-line-icons; src: url("chrome-extension://mihdfbecejheednfigjpdacgeilhlmnf/assets/fonts/Simple-Line-Icons.ttf") format("truetype"); }
</style></defs><path d="M512 0c-282.76736 0-512 229.23264-512 512s229.23264 512 512 512l0-384-128 0 0-128 128 0 0-96.01024c0-88.3712 71.63904-160.01024 160.01024-160.01024l160.01024 0 0 128-160.01024 0c-17.67424 0-32.01024 14.336-32.01024 32.01024l0 96.01024 176.00512 0-32.01024 128-143.99488 0 0 367.86176c220.83584-56.832 384-257.29024 384-495.86176 0-282.76736-229.23264-512-512-512z" p-id="8417"></path></svg>