<?xml version="1.0" standalone="no"?><!DOCTYPE svg PUBLIC "-//W3C//DTD SVG 1.1//EN" "http://www.w3.org/Graphics/SVG/1.1/DTD/svg11.dtd"><svg t="1494661178450" class="icon" style="" viewBox="0 0 1025 1024" version="1.1" xmlns="http://www.w3.org/2000/svg" p-id="8670" xmlns:xlink="http://www.w3.org/1999/xlink" width="200.1953125" height="200"><defs><style type="text/css">@font-face { font-family: simple-line-icons; src: url("chrome-extension://mihdfbecejheednfigjpdacgeilhlmnf/assets/fonts/Simple-Line-Icons.ttf") format("truetype"); }
</style></defs><path d="M437.01398 818.139157c0 75.057699-46.386272 134.387072-177.762845 139.179296-76.98278-43.785364-141.49349-106.944421-186.896742-182.862263 23.694886-58.48971 97.687646-103.053299 182.309314-102.111238 24.02256 0.245755 46.406752 4.116398 66.742985 10.690346 55.909282 38.870263 101.00534 63.159057 112.330553 107.435931 2.109398 8.970061 3.276734 18.206356 3.276734 27.647447zM512.01024 0c-147.944561 0-281.184776 62.769945-374.653627 163.099458 36.924702-20.459111 80.546229-32.644467 126.891542-32.644467 67.070659 0 256.424952 0 256.424952 0l-57.301894 60.148557-67.316414 0c47.49217 27.217376 72.743505 83.249535 72.743505 145.01598 0 56.687506-31.415692 102.377472-75.774485 137.049419-43.273375 33.791324-51.48569 47.963201-51.48569 76.737025 0 24.534549 51.710966 61.090618 75.50825 78.928341 82.819464 62.114598 99.571769 101.189656 99.571769 178.868743 0 78.723546-68.934301 157.098938-185.852283 183.742885 56.339353 21.339733 117.429971 33.054059 181.244375 33.054059 282.761705 0 511.98976-229.228055 511.98976-511.98976s-229.228055-511.98976-511.98976-511.98976zM768.00512 383.99232l0 127.99744-63.99872 0 0-127.99744-127.99744 0 0-63.99872 127.99744 0 0-127.99744 63.99872 0 0 127.99744 127.99744 0 0 63.99872-127.99744 0zM365.785964 339.469691c11.919122 90.765545-27.852243 149.193816-96.929901 147.125377-69.118618-2.088918-134.796664-65.49373-146.736265-156.238795-11.919122-90.786024 34.426191-160.252795 103.52433-158.184356 69.098138 2.068439 128.222716 76.532229 140.141837 167.297774zM220.892862 642.055639c-74.668587 0-138.134837 25.763325-182.841783 63.855363-24.49359-59.820884-38.051079-125.294134-38.051079-193.921242 0-56.769425 9.256775-111.368013 26.316274-162.382672 7.372653 99.448891 77.351413 176.185916 192.958701 176.185916 8.51951 0 16.772785-0.450551 24.882702-1.02398-7.946081 15.236815-13.618928 32.193916-13.618928 49.99068 0 29.961641 16.48607 47.062099 36.863263 66.886342-15.400652 0-30.268835 0.409592-46.50915 0.409592z" p-id="8671"></path></svg>